<svg xmlns="http://www.w3.org/2000/svg" height="48" viewBox="0 -960 960 960" width="48"><path d="M480-40q-7 0-13.45-2.41Q460.1-44.817 455-51L353-152H180q-28.725 0-50.863-22.137Q107-196.275 107-225v-600q0-29.725 22.137-51.362Q151.275-898 180-898h600q28.725 0 50.862 21.638Q853-854.725 853-825v600q0 28.725-22.138 50.863Q808.725-152 780-152H607L506-51q-6.1 6.182-12.55 8.59Q487-40 480-40Zm2-411q61.629 0 103.814-42.686Q628-536.371 628-597q0-61.629-42.186-103.814Q543.629-743 482-743q-60.629 0-103.314 42.186Q336-658.629 336-597q0 60.629 42.686 103.314Q421.371-451 482-451Zm-2 318 93-92h207v-43q-60-56-136-90.5T480-393q-88 0-164 34.5T180-268v43h207l93 92Z"/></svg>